<svg id="Capa_1" data-name="Capa 1" xmlns="http://www.w3.org/2000/svg" viewBox="0 0 10 10"><defs><style>.cls-1{fill:#80892f;}</style></defs><title>iconos </title><path class="cls-1" d="M7.37,1.69,8.82,3.17,3,8.89,1.54,7.41ZM5.28,6.1,4.8,5.65,5,5.45l.51.48.26-.27-.33-.3.19-.21.34.33.2-.2-.5-.47.17-.19.51.48.26-.28L6.3,4.57l.18-.2.29.28L7,4.46,6.53,4l.18-.19.46.44L7.43,4l-.28-.25.17-.19.29.29.2-.21-.44-.42L7.55,3,8,3.46l.29-.31-.93-.94L2.05,7.42l.94,1,.25-.26L2.9,7.8l.18-.19.34.33.2-.21-.49-.46.17-.19.5.48.27-.28L3.75,7l.18-.19.34.33.18-.2L4,6.44l.16-.19.51.48.24-.26-.33-.29L4.75,6l.34.34Z"/></svg>