<svg id="Capa_1" data-name="Capa 1" xmlns="http://www.w3.org/2000/svg" viewBox="0 0 10 10"><defs><style>.cls-1{fill:#80892f;}</style></defs><title>iconos </title><path class="cls-1" d="M.71,5.74H.4a.16.16,0,1,1,0-.31H.71c0-.06,0-.11,0-.15,0-.82,0-1.63,0-2.45a1.58,1.58,0,0,1,3.13-.27.39.39,0,0,0,.23.36.6.6,0,0,1,.32.57H3a.65.65,0,0,1,.38-.62.13.13,0,0,0,.08-.15,1.19,1.19,0,0,0-2.36-.08,2.63,2.63,0,0,0,0,.37q0,1.14,0,2.29s0,.07,0,.12H7.87A.15.15,0,0,1,8,5.6a.15.15,0,0,1-.15.14H7.56s0,.07,0,.11c0,.35,0,.7,0,1A1.4,1.4,0,0,1,6.34,8.34l-.1,0c0,.12,0,.24,0,.36s-.06.19-.15.19-.16-.07-.17-.19,0-.24,0-.37H2.33c0,.12,0,.24,0,.36s0,.11,0,.13a.25.25,0,0,1-.16.05A.13.13,0,0,1,2,8.76c0-.13,0-.26,0-.4l-.31-.07A1.38,1.38,0,0,1,.71,7c0-.37,0-.75,0-1.12C.71,5.83.71,5.79.71,5.74ZM5.66,7a.65.65,0,0,1,.51-.49A.67.67,0,0,1,5.65,6a.65.65,0,0,1-.52.5A.66.66,0,0,1,5.66,7ZM4,6.94a.48.48,0,0,1-.37.39A.46.46,0,0,1,4,7.69a.46.46,0,0,1,.37-.37A.47.47,0,0,1,4,6.94Z"/></svg>