<svg id="Capa_1" data-name="Capa 1" xmlns="http://www.w3.org/2000/svg" viewBox="0 0 500 500"><defs><style>.cls-1{fill:#80892f;stroke:#80892f;stroke-miterlimit:10;}</style></defs><title>iconos ficha tecnica</title><path class="cls-1" d="M447.2,99.35c-1.46,1.55-2.49,2.7-3.57,3.79C386.8,160.35,329.81,217.39,273.29,274.9c-11.75,12-31.68,11.47-43-.1C174.21,217.3,117.55,160.33,61.09,103.17c-1.09-1.11-2.14-2.25-3.63-3.82Z"/><path class="cls-1" d="M312.56,266.2,445,400.65H55.19L189.34,264.56c8.46,8.24,17.32,15.86,25,24.53,19.42,22,55.19,22.27,75,.08C296.48,281.14,304.62,274,312.56,266.2Z"/><path class="cls-1" d="M174.72,248.82,41.11,384.29V113.48Z"/><path class="cls-1" d="M327.09,250.32l131.79-129.4V384.13Z"/></svg>