<svg id="Capa_1" data-name="Capa 1" xmlns="http://www.w3.org/2000/svg" viewBox="0 0 10 10"><defs><style>.cls-1{fill:#80892f;}</style></defs><title>iconos </title><path class="cls-1" d="M8.44,9H7.88s0,0,0,0c0-.19,0-.37,0-.56a.25.25,0,0,0-.23-.25H2a.28.28,0,0,0-.19.06.25.25,0,0,0-.09.17,1,1,0,0,0,0,.1q0,.24,0,.48V9H1.14V4.5H1.7V7H8.44Z"/><path class="cls-1" d="M3.66,5.35H7.89a.53.53,0,0,1,.42.21.55.55,0,0,1,.12.27.51.51,0,0,1,0,.08q0,.41,0,.83v0H3.66Z"/><path class="cls-1" d="M2,6a.7.7,0,1,1,.7.7A.7.7,0,0,1,2,6Z"/><path class="cls-1" d="M3.83,4.22h.73V4.5H3.38a1.14,1.14,0,0,0,0-.12.18.18,0,0,1,0-.14l.51-.63.17-.21H3.44V3.1H4.56v0c0,.06,0,.13,0,.19v0L4,4l-.14.16Z"/><path class="cls-1" d="M5.8,2.81h.72v.28H5.35a.66.66,0,0,0,0-.09.22.22,0,0,1,.06-.18l.33-.41L6.07,2H5.43s0,0,0,0,0-.18,0-.28H6.53c0,.07,0,.13,0,.19a.06.06,0,0,1,0,0l-.29.36-.29.36-.13.15Z"/></svg>