<svg id="Capa_1" data-name="Capa 1" xmlns="http://www.w3.org/2000/svg" viewBox="0 0 1000 1000"><defs><style>.cls-1,.cls-2,.cls-3,.cls-4{fill:#80892f;}.cls-1{fill-rule:evenodd;}.cls-3{font-size:126.83px;}.cls-3,.cls-4{font-family:TrajanPro-Bold, Trajan Pro;font-weight:700;}.cls-4{font-size:47.14px;}.cls-5{font-size:42.4px;fill:#fff;font-family:SegoeUISymbol, Segoe UI Symbol;}</style></defs><title>los robles</title><path class="cls-1" d="M722.68,350.74c0,6.36,2.13,7.5,8.11,6.09,3.74-12-8.11-14.09-8.11-6.09m164.09,91.6c0-2.58-2.19-6.07-5.06-6.07-2.51,0-3.81,2.52-6.09,4-2.62-9.8-17.37-5.73-14.18,7.1a9.52,9.52,0,0,0,9.12,7.08c2.53,0,3.81-2.52,6.09-4v-4C878,446.76,886.78,452.18,886.78,442.33ZM723.71,427s-4.88-2.27-4.88,2.08c0,2.73.48,2.79,1,5.06A14.84,14.84,0,0,0,723.71,427Zm22.55,22.69c13.35,0,9.24-25.1-2-22.29C733.14,430.19,736.17,449.74,746.26,449.74Zm-14.07,49.35,160.06-3.56c0-2-.34-1.77-1.24-3.25l-4.85,5.28C888,497.55,892.25,498.11,892.25,495.52ZM788.88,528c-.34-4.08-2.75-8.58-4.71-11.49-3-4.52.23-1.24-4.78-3.35a65.56,65.56,0,0,1-5.71-3.39c-2.08,0-5.87,2-10.14,2v2C771,514.4,783.51,526.52,788.88,528ZM795,531c0,5.15-1,10.61,1.66,15.08,9.09-26.8,1.81-12.22,1.39-31.3h-9.12C791.94,520.57,792.42,525.72,795,531Zm-8.11,51c-.79.22-19.26,9.77-25.31,12.91H747.84c10.32-5.39,38.09-25,38-37.61-.12-17.61,7-18.43-12.91-33.7-5-3.82-20.08-14.93-27.63-9.87-3.16,2.12-9.84,23.57-25.33,10.13-5.26,7.85-17.5,6.07-26.35,6.07-4.36,18.68-34.93,9.32-38.5-6.07-17.38-.38-17-22.29-4.06-22.29h7.1c1.17-5,4.19-7,9.92-7.16l1.34-4.73c4.69-2.18,7.89-2.31,13.06-2.31,3.29,0,.77-.88,5.08-2v-2c-10.09-2.67-2.82,4-26.35,4-7.87,0-10.38-9.11-18.25-9.11-24.43,0-9.55,1-27.36-3-3.51-.81-22,2-14.18-13.17-9-13.48-5.25-18.35,12.16-22.3,3-.67,2.39.63,8.11-1,2.49-.73,10.54-1.4,14-2.08l1.23-4c-2.94-2-1.36-2-5.08-3-.89-3.32-4.08-6.55-4-10.14.1-10.15-5.16-16.2,10.08-14.85l6.14.67c0-20,22.49-2.75,18.32-19.31-1-4-1.09-3.55-1.09-8.06,0-9.57,10.91-6.74,16.21-5.06-3.38-5.06-13.32-11.55-11.15-20.27,5.72-10.81,5.22-7.9,15.2-13.19,0-15.86,3.2-24.32,21.28-24.32,14.61,0,21.12,14.66,27.33,18.27,3,1.78,7,3.34,10.39,5-5.37-17.35,10.09-24.89,25.11-28.3h3c1.25,0,8.16-5,16.21-3.06,7.75,1.93,6.26,10.37,5.08,16.22,3,4.54,2,9.7,2,15.19,20,0,8.8-2.77,23.3-6.07,4.52-1,9.93.9,14.19,2,13.66-9.16,15-1,24.31-1,2.41,0,27.38-11.68,27.38,22.29,16.1,3.74,15.19,21.87,15.26,35.65,8.85-3.25,9.74-.88,15.15-2.21,3.92-1,11.22-7.06,15.19-6.07,7.09,1.76,15,10.4,13.17,18.23-3.76,7.87-5.68,13-15.2,15.21,4.14,6.16,10.14,6.87,10.14,17.21,12.43,2.9,32.45,10.59,28.46,26.42l-1.09,2v4c-9.11,40-33.2,30.47-34.45,15.21-24.59,0-22.22-2.71-41.56-4.06,1.8,6.75,14.18,3.11,14.18,21.3,0,3.28-.88.76-2,5.05,4.66,1.24,4.08,4.87,4,9.07-10.09,5.21-8.06-.95-13.15-.95H878.06c0,15-8.7,7.69-14,6l-1.2-3c-6.55,0-19.34-1.81-21.28-9.12-5.13-.43-6-3-7.1-3-1.58,0-11.81,7.48-19.26,8.11.22,9.77,10.3,19.57,8.12,28.37-1.91,7.64-9.28,14.62-8.12,19.26C821.9,571,820,583,832.1,591.52a21,21,0,0,1,3.49,3.44H819.27v-.75c-4.4,0-3.13-1.6-8.11-2-2.05-3.07-3.94-5-4-10.14-5.32.45-17.33,9.22-20.08,12.91H773.68C777.43,593.27,785.34,584.31,786.85,582Z"/><path class="cls-1" d="M728.07,541.14v4.05c-1.21,2.28-2.72,6.09-6.09,6.09h-2c-7.81-4.15-3.87-3.42-7.1-10.14v-3.05c0-1.72,1.34-3.77,2-5.05H721c5.8,3.07,4.12,2.48,7.1,8.11"/><path class="cls-1" d="M648,371.9v4a3.89,3.89,0,0,1-4,4,5.73,5.73,0,0,1-5.06-5.06v-1c0-2.37,2.7-5.08,5.06-5.08h1c2.33,0,3,.7,3,3.05"/><path class="cls-1" d="M908.83,357.34v8.09c-1.21,2.29-2.72,6.09-6.07,6.09h-2c-3.48,0-5.8-4.65-7.1-7.1v-8.09c2.38-4.51.57-2.71,5.08-5.08h4.05c3.35,0,4.87,3.8,6.07,6.09"/><path class="cls-1" d="M967.24,437.77v3a3.89,3.89,0,0,1-4.05,4c-2.36,0-5.08-2.69-5.08-5.06l.06-2,1-3.07c2.72-.65,1.92-1,4.05-1a3.9,3.9,0,0,1,4.05,4.06"/><rect class="cls-2" x="41.01" y="593.77" width="938.93" height="7.32"/><rect class="cls-2" x="595.5" y="605.15" width="384.75" height="42.07"/><text class="cls-3" transform="translate(130.33 594.97)">R</text><text class="cls-3" transform="translate(225.45 594.97)">o</text><text class="cls-3" transform="translate(326.53 594.97)">b</text><text class="cls-3" transform="translate(402.64 594.97)">les</text><text class="cls-4" transform="translate(51.82 530.04)">L</text><text class="cls-4" transform="translate(80.1 530.04)">os</text><text class="cls-5" transform="translate(609.43 643.24)">solidez inmobiliaria</text></svg>