<svg id="Capa_1" data-name="Capa 1" xmlns="http://www.w3.org/2000/svg" viewBox="0 0 10 10"><defs><style>.cls-1{fill:#80892f;stroke:#80892f;stroke-miterlimit:10;stroke-width:0.25px;}</style></defs><title>iconos </title><path class="cls-1" d="M6.23,8.3H4c-.15.46-.35.64-.69.63s-.54-.22-.63-.62H2.63c-.55,0-.76-.23-.75-.8a8.71,8.71,0,0,1,0-.94.47.47,0,0,1,.55-.46c.31,0,.31,0,.43-.29l.39-.94a1,1,0,0,1,1-.65q.9,0,1.8,0a1,1,0,0,1,1,.65q.23.54.44,1.09c0,.11.1.16.21.14h.23a.55.55,0,0,1,.59.57q0,.52,0,1a.61.61,0,0,1-.59.58.92.92,0,0,0-.31,0,2.65,2.65,0,0,1-.34.48.63.63,0,0,1-.39.11C6.52,8.92,6.31,8.71,6.23,8.3ZM5.12,6.15h0c.39,0,.77,0,1.16,0,.22,0,.31-.12.27-.33a3.35,3.35,0,0,0-.23-.67.61.61,0,0,0-.57-.36H4.51a.62.62,0,0,0-.56.35,3.73,3.73,0,0,0-.21.52c-.12.35,0,.5.36.5ZM3.25,7.68a.57.57,0,1,0-.57-.58A.57.57,0,0,0,3.25,7.68Zm4.42-.57a.57.57,0,1,0-.57.57A.57.57,0,0,0,7.67,7.11Z"/><path class="cls-1" d="M1.11,5a.49.49,0,0,1-.47-.28.42.42,0,0,1,.08-.5.92.92,0,0,1,.2-.15L4.74,1.8a.58.58,0,0,1,.65,0l4,2.3a.5.5,0,0,1,.32.5.44.44,0,0,1-.31.4A.54.54,0,0,1,9,4.9C7.85,4.26,6.71,3.64,5.61,3a.84.84,0,0,0-1,0c-1,.66-2.09,1.27-3.14,1.89A2.85,2.85,0,0,1,1.11,5Z"/></svg>