<svg id="Capa_1" data-name="Capa 1" xmlns="http://www.w3.org/2000/svg" viewBox="0 0 500 500"><defs><style>.cls-1{fill:#80892f;}.cls-2{fill:#fff;}</style></defs><title>iconos ficha tecnica</title><path class="cls-1" d="M92.66,473.39C83,461.52,75.54,448.25,69.45,434.32c-1.85-4.24-1.2-9.61-1.44-14.48,0-.8,1.16-1.72,1.87-2.5,3.74-4.09,7.52-8.16,10.79-11.71C76.85,401,73.25,396.91,70,392.58c-4.68-6.25-4.22-17.56.68-23.62,3.64-4.5,7.2-9.07,10.94-13.5A33,33,0,0,1,86,351.83c.11.46.11.13,0,.1-7.92-2.84-9.74-9.46-10.65-16.79-2.11-17,3-31.07,17-41.52.15-.11.19-.36.11-.19-5-4.64-9.85-9.27-14.85-13.72-5.54-4.93-6.39-11-4.95-17.83,2-9.46,7.32-16.37,16.35-19.51,4.73-1.64,10.13-1.36,15.23-1.94.94-.11,1.89-.18,3-.29.08-.84.22-1.56.22-2.28,0-14.27,0-28.54,0-42.81a3.72,3.72,0,0,0-1.93-3.49,7.75,7.75,0,0,1-3-5.17c-.3-9.22-.25-18.45,0-27.67,0-1.84,1.3-3.66,1.76-4.85-.67-2.89-1.71-5.44-1.78-8-.22-8.15-.05-16.31-.1-24.46,0-3,.75-5.42,3.78-6.81a3.29,3.29,0,0,0,1.21-2.51c.09-2.83.88-5.86-3-7.45-1.09-.45-1.82-2.88-1.92-4.44A78.41,78.41,0,0,1,102.54,87c.21-1.92,2.09-3.65,3.2-5.47.57-.95,1.59-1.9,1.6-2.87.13-7.94.07-15.88.08-23.82,0-17.53,10.3-27.93,28-28q40.55-.22,81.11-.2,38.46,0,76.93.2a45.1,45.1,0,0,1,9.56.91c11.18,2.5,18.7,11.5,19.5,23,.13,1.82.14,3.64.14,5.47,0,61.9,0,123.81,0,186.27,2.86-4.26,6.39-6.9,11.09-7.61,6-.9,10.93,1.33,15.3,5.16a4.15,4.15,0,0,1,1,2.27c2.42,13.06,4.77,26.13,7.23,39.18a11.64,11.64,0,0,0,1.84,4.34c2.93,4.23,5.83,8.51,9.12,12.46,18.17,21.78,29.93,47.37,43.1,72.12,4.32,8.13,8.09,16.62,13.06,24.34a52.3,52.3,0,0,1,7.81,20.49,49.23,49.23,0,0,1,.87,7.34c.11,16.95.11,33.9.15,50.85ZM163.74,39.32c-9.48,0-18.92-.38-28.3.23-2.89.19-6,2.66-8.29,4.86-3.75,3.67-4.89,8.62-4.89,13.85q0,182.65,0,365.29c0,12.52,8,20.66,20.4,20.66q72.42,0,144.83,0a26.42,26.42,0,0,0,7-.84c7.95-2.21,13.25-10.28,13.25-19.87q0-182.33,0-364.65c0-1.07,0-2.15,0-3.22C307.15,48,301.27,38.28,290.41,39c-4.38.3-8.79.05-13.19.05h-11c-.13,1.56-.21,2.72-.34,3.87-.76,6.67-5.58,11.22-12.26,11.23q-38.62.09-77.24,0a11.52,11.52,0,0,1-11.56-8.88C164.27,43.47,164.11,41.53,163.74,39.32ZM298.25,469.38h131.5c.07-.7.16-1.22.16-1.73,0-11.05,0-22.1,0-33.16-.05-14.15-1.55-27.65-9.69-40.2-7.6-11.73-13.17-24.76-19.88-37.09C392,341.89,385,325.81,374,312c-6.37-7.93-12.16-16.34-18.12-24.61a11.22,11.22,0,0,1-1.83-4.32c-2.3-12-4.82-24-6.58-36-.8-5.49-4.06-7.41-8.5-8.53-5.17-1.3-11.4,1.39-12.42,5.5-5.7,22.94-9.06,46.11-5.23,69.73,1.92,11.86,6.2,22.73,15.62,30.93a4.56,4.56,0,0,1,1.05,2.81,120,120,0,0,0,14,46.76,4.75,4.75,0,0,1,0,3.74c-2.43,5.25-5.08,10.39-7.7,15.55a5.25,5.25,0,0,1-1.47,2c-9.08,6.06-15.92,14.36-22.39,22.91C313,448.42,306,458.64,298.25,469.38ZM301.06,459c-3.45.26-6.64.71-9.83.71q-76.09,0-152.18,0c-12.92,0-23.21-4.46-28.8-16.94-.22-.48-.66-.87-.84-1.36-2.71-7.44-6.78-14.46-5.34-23,.86-5.14.65-10.47.78-15.71a30.68,30.68,0,0,0-.66-4.84c-6.24,2.11-12.12,4.07-18,6.09a3.58,3.58,0,0,0-1.48,1.13c-3.29,4-6.14,8.55-9.92,12.06-5,4.63-4.61,10.54-2.4,15,5.92,12,13.14,23.26,19.84,34.83,1.27,2.19,3.12,2.73,5.62,2.73q96.68-.15,193.37-.15a7.12,7.12,0,0,0,1.92,0,3.35,3.35,0,0,0,1.79-1C297,465.37,299,462.22,301.06,459ZM111.73,374.42l-1.09-.23c0-1.93.14-3.87,0-5.78-.63-7.07-5.85-12.74-12.11-12.85a97.23,97.23,0,0,0-11.86.75A4.49,4.49,0,0,0,84.17,358c-4.08,5-8.13,10-12.07,15a8.19,8.19,0,0,0-1.41,3.42C68.76,386.6,74,393.7,80.89,400c.82.76,2.8.88,4,.51,6.33-2,12.62-4.07,18.82-6.41a6.65,6.65,0,0,0,3.75-3.4C109.15,385.35,110.35,379.85,111.73,374.42Zm-.62-47.3c-1.15-4.68-2.34-9.5-3.51-14.34-.59-2.43-1.52-4.85-1.61-7.3-.23-6.5-.08-6.51-5.87-8.87a4.86,4.86,0,0,1-1.18-.5c-1.83-1.43-3.21-.59-4.79.61-13.93,10.6-17.85,24.74-14.64,41.34.48,2.46,1,5.64,2.71,7,6.34,5.12,13.58,8.24,22,5.86a4.71,4.71,0,0,0,2.76-3C108.49,341.22,109.71,334.4,111.12,327.12ZM323,428.35q8.6-7.69,17.18-15.39a6.24,6.24,0,0,0,1.27-1.82c2.23-4.4,4.5-8.78,6.58-13.25a4.54,4.54,0,0,0,0-3.19c-3.3-8.7-6.72-17.35-10.12-26a5.44,5.44,0,0,0-1.17-2.2c-4.42-3.7-8.92-7.3-13.76-11.24ZM105.72,244c-3.4.28-6.37.83-9.31.72-10.65-.39-19.16,9.27-20.32,18.43-.39,3.09-.9,7.11.63,9.32,6.71,9.63,15.34,17.28,26.59,21.46a17,17,0,0,0,2.4.55ZM214.83,45.66h20.58c2.29,0,4.57-.36,4.62-3.23.06-3.05-2.29-3.47-4.71-3.47h-20.9c-6.75,0-13.51-.05-20.26,0-3.08,0-5.22,2.28-3.94,4.24a6.17,6.17,0,0,0,4.36,2.33C201.32,45.8,208.08,45.66,214.83,45.66ZM336,361c-.73-7.74-.92-14.79-7.25-20-2.54-2.07-3.86-5.64-6.08-9.06,0,6.05,0,11.47,0,16.88a2.86,2.86,0,0,0,.78,2C327.48,354.18,331.55,357.42,336,361ZM107.35,117.09l-.94-.45c-.53,1.1-1.52,2.2-1.53,3.3q-.19,14.12,0,28.24c0,1.11,1.12,2.21,1.72,3.31l.75-.41Zm-.06,38.46-1-.35c-.48,1.15-1.37,2.29-1.39,3.44q-.17,14,0,28c0,1.11,1.09,2.21,1.68,3.32l.73-.42Zm0-51.71V83.76C103.86,85.38,103.63,101.19,107.28,103.84ZM253.7,42.51c-1.74-1.15-2.72-2.1-3.86-2.38-.4-.1-1.86,1.69-1.68,2.23a4,4,0,0,0,2.39,2.31C251.18,44.84,252.17,43.61,253.7,42.51Z"/><path class="cls-2" d="M163.74,39.32c.37,2.21.53,4.14,1,6a11.52,11.52,0,0,0,11.56,8.88q38.62.09,77.24,0c6.68,0,11.49-4.56,12.26-11.23.13-1.15.2-2.31.34-3.87h11c4.4,0,8.81.25,13.19-.05,10.86-.75,16.74,8.94,17.29,16.58.08,1.07,0,2.14,0,3.22q0,182.33,0,364.65c0,9.59-5.3,17.66-13.25,19.87a26.42,26.42,0,0,1-7,.84q-72.42.07-144.83,0c-12.38,0-20.4-8.14-20.4-20.66q0-182.65,0-365.29c0-5.23,1.13-10.19,4.89-13.85,2.26-2.21,5.4-4.67,8.29-4.86C144.81,38.94,154.25,39.32,163.74,39.32Z"/><path class="cls-2" d="M298.25,469.38c7.71-10.75,14.75-21,22.23-30.86,6.47-8.55,13.31-16.85,22.39-22.91a5.25,5.25,0,0,0,1.47-2c2.61-5.16,5.27-10.3,7.7-15.55a4.75,4.75,0,0,0,0-3.74,120,120,0,0,1-14-46.76,4.56,4.56,0,0,0-1.05-2.81c-9.41-8.21-13.69-19.07-15.62-30.93-3.83-23.62-.47-46.79,5.23-69.73,1-4.11,7.26-6.8,12.42-5.5,4.45,1.12,7.7,3,8.5,8.53,1.76,12.07,4.27,24,6.58,36a11.22,11.22,0,0,0,1.83,4.32c6,8.26,11.74,16.67,18.12,24.61,11.06,13.77,18,29.85,26.36,45.16,6.7,12.33,12.27,25.36,19.88,37.09,8.14,12.56,9.64,26.05,9.69,40.2,0,11.05,0,22.1,0,33.16,0,.52-.09,1-.16,1.73Z"/><path class="cls-2" d="M301.06,459c-2.05,3.19-4,6.34-6.12,9.41a3.35,3.35,0,0,1-1.79,1,7.12,7.12,0,0,1-1.92,0q-96.68,0-193.37.15c-2.5,0-4.35-.54-5.62-2.73-6.7-11.57-13.92-22.87-19.84-34.83-2.21-4.46-2.59-10.37,2.4-15,3.78-3.51,6.63-8,9.92-12.06a3.58,3.58,0,0,1,1.48-1.13c5.86-2,11.74-4,18-6.09a30.68,30.68,0,0,1,.66,4.84c-.13,5.25.08,10.57-.78,15.71-1.44,8.55,2.63,15.57,5.34,23,.18.49.62.88.84,1.36,5.59,12.48,15.88,16.93,28.8,16.94q76.09,0,152.18,0C294.42,459.75,297.61,459.3,301.06,459Z"/><path class="cls-2" d="M111.73,374.42c-1.39,5.44-2.59,10.93-4.29,16.27a6.65,6.65,0,0,1-3.75,3.4c-6.2,2.34-12.49,4.44-18.82,6.41-1.19.37-3.16.24-4-.51C74,393.7,68.76,386.6,70.68,376.48a8.19,8.19,0,0,1,1.41-3.42C76,368,80.09,363,84.17,358a4.49,4.49,0,0,1,2.48-1.73,97.23,97.23,0,0,1,11.86-.75c6.26.11,11.49,5.78,12.11,12.85.17,1.91,0,3.85,0,5.78Z"/><path class="cls-2" d="M111.12,327.12c-1.41,7.28-2.62,14.11-4.13,20.86a4.71,4.71,0,0,1-2.76,3c-8.41,2.38-15.66-.73-22-5.86-1.7-1.37-2.24-4.55-2.71-7-3.2-16.6.72-30.75,14.64-41.34,1.58-1.2,3-2,4.79-.61a4.86,4.86,0,0,0,1.18.5c5.79,2.37,5.64,2.37,5.87,8.87.09,2.45,1,4.87,1.61,7.3C108.77,317.62,110,322.44,111.12,327.12Z"/><path class="cls-2" d="M323,428.35V355.26c4.85,3.94,9.34,7.54,13.76,11.24a5.44,5.44,0,0,1,1.17,2.2c3.4,8.66,6.82,17.31,10.12,26a4.54,4.54,0,0,1,0,3.19c-2.08,4.47-4.35,8.85-6.58,13.25a6.24,6.24,0,0,1-1.27,1.82Q331.62,420.69,323,428.35Z"/><path class="cls-2" d="M105.72,244v50.48a17,17,0,0,1-2.4-.55c-11.25-4.18-19.88-11.83-26.59-21.46-1.54-2.21-1-6.23-.63-9.32,1.16-9.15,9.67-18.82,20.32-18.43C99.35,244.82,102.31,244.27,105.72,244Z"/><path class="cls-2" d="M214.83,45.66c-6.75,0-13.51.14-20.25-.11a6.17,6.17,0,0,1-4.36-2.33c-1.27-2,.86-4.2,3.94-4.24,6.75-.08,13.5,0,20.26,0h20.9c2.43,0,4.77.42,4.71,3.47-.05,2.86-2.34,3.22-4.62,3.23Z"/><path class="cls-2" d="M336,361c-4.44-3.58-8.52-6.83-12.51-10.16a2.86,2.86,0,0,1-.78-2c-.06-5.41,0-10.83,0-16.88,2.22,3.42,3.54,7,6.08,9.06C335.08,346.21,335.26,353.26,336,361Z"/><path class="cls-2" d="M107.35,117.09v34l-.75.41c-.6-1.1-1.7-2.2-1.72-3.31q-.21-14.12,0-28.24c0-1.11,1-2.2,1.53-3.3Z"/><path class="cls-2" d="M107.29,155.56v34l-.73.42c-.59-1.11-1.66-2.2-1.68-3.32q-.21-14,0-28c0-1.15.9-2.3,1.39-3.44Z"/><path class="cls-2" d="M107.28,103.84c-3.65-2.65-3.43-18.46,0-20.08Z"/><path class="cls-2" d="M253.7,42.51c-1.52,1.1-2.52,2.32-3.15,2.16a4,4,0,0,1-2.39-2.31c-.18-.54,1.28-2.33,1.68-2.23C251,40.41,252,41.37,253.7,42.51Z"/></svg>