<svg xmlns="http://www.w3.org/2000/svg" viewBox="0 0 500 500"><defs><style>.cls-1{isolation:isolate;}.cls-2{mix-blend-mode:multiply;}.cls-3{fill:#7f8930;}.cls-4{fill:#fff;}</style></defs><title>iconos ficha tecnica</title><g class="cls-1"><g id="Capa_1" data-name="Capa 1"><g class="cls-2"><path class="cls-3" d="M80.57,177.32c-1.44.15-3-.05-4.29.52-5.29,2.44-10.58,4.91-15.67,7.74-6.51,3.62-11.51,9.17-15.63,15.1-9.61,13.82-7.77,33.47,3.72,45.86a5.86,5.86,0,0,0,4,1.71c7.16-.26,14.3-.82,21.45-1.27,21.45-1.33,42.9-2.62,64.35-4.05a5.34,5.34,0,0,0,3.54-2,37.72,37.72,0,0,0-.85-45.11c-1.58-2.08-3.33-4-5.25-6.33,46.92-24.89,96.8-34.81,149.34-31.67,27.09,1.62,53.46,7.07,79.31,18.15-1.86,2.33-4.58,3.65-6.23,5.8a37.61,37.61,0,0,0,.41,45.54,4.63,4.63,0,0,0,3.36,1.5c16-.88,32-1.91,48-2.89,13.88-.85,27.76-1.65,41.64-2.61,1.38-.1,3.33-.79,3.93-1.83,6.43-11.21,7.6-22.91,2-34.79-6.85-14.64-19.15-22.43-34.28-26.55a19,19,0,0,1-5.77-2.9c-7.65-5.41-14.87-11.49-22.83-16.37-39.87-24.43-83.67-34.81-130.06-35.39A274,274,0,0,0,198,112.69c-29.44,7-57.4,17.36-82.35,34.93-3.22,2.27-6.89,3.93-9.94,6.38-5.83,4.68-11.36,9.72-17,14.6-2.74,2.53-5.49,5-8.19,7.61C80.33,176.38,80.54,176.95,80.57,177.32ZM107,372.22c.22,3.79.48,10.32,1,16.82.36,4.13,1.34,4.83,5.45,4.83,9.91,0,19.81,0,29.72,0,3.11,0,6,.17,6.64-3.95.1-.65,1.11-1.2,1.77-1.72a151.67,151.67,0,0,1,51.86-26.18,190.12,190.12,0,0,1,100.84-1.86c21,5.24,40.35,14,57.58,27.2,1.21.93,2.79,2,3.14,3.31.85,3.16,2.86,3.83,5.66,3.81,8.43,0,16.86,0,25.29-.06,3.73,0,4.72-1.08,5-4.9a235.93,235.93,0,0,0-4.37-69.46c-8.41-38.85-24.77-73.63-53.74-101.5-26.77-25.75-58.37-39.78-96.21-37.55a114.78,114.78,0,0,0-39.93,9.85c-10.39,4.59-20.23,10.12-28.68,17.9-5.65,5.2-11.82,9.9-17.06,15.48s-9.94,12.23-14.75,18.47c-2.92,3.79-6.11,7.48-8.38,11.65-4.92,9-9.88,18.13-13.84,27.61C112.44,309.95,107.44,339.28,107,372.22Z"/><path class="cls-3" d="M107,372.22c.39-32.94,5.39-62.27,17.06-90.21,4-9.48,8.92-18.57,13.84-27.61,2.27-4.17,5.46-7.86,8.38-11.65,4.82-6.24,9.38-12.74,14.75-18.47S172.5,214,178.15,208.8c8.44-7.78,18.29-13.31,28.68-17.9a114.78,114.78,0,0,1,39.93-9.85c37.84-2.23,69.44,11.8,96.21,37.55,29,27.87,45.33,62.65,53.74,101.5a235.93,235.93,0,0,1,4.37,69.46c-.31,3.82-1.3,4.89-5,4.9-8.43,0-16.86,0-25.29.06-2.79,0-4.81-.66-5.66-3.81-.35-1.29-1.93-2.38-3.14-3.31-17.23-13.21-36.62-22-57.58-27.2a190.12,190.12,0,0,0-100.84,1.86,151.67,151.67,0,0,0-51.86,26.18c-.65.51-1.67,1.07-1.77,1.72-.63,4.12-3.53,4-6.64,3.95-9.9-.08-19.81,0-29.72,0-4.12,0-5.1-.7-5.45-4.83C107.53,382.54,107.27,376,107,372.22ZM256.25,208.41v0H242.66c-4.53,0-9.06,0-13.59,0-9.77.08-15.38,5.61-15.4,15.28q-.06,26.71,0,53.43c0,9.51,5.68,15.2,15.13,15.22q27.66.06,55.33,0c9.41,0,14.94-5.51,15-14.84.11-18.12.07-36.25,0-54.38,0-8.67-6.14-14.74-14.74-14.77C275,208.39,265.63,208.41,256.25,208.41Z"/><path class="cls-3" d="M88.7,168.6c5.65-4.89,11.19-9.93,17-14.6,3.05-2.45,6.72-4.12,9.94-6.38,24.95-17.56,52.91-28,82.35-34.93a274,274,0,0,1,66.73-7.19c46.38.58,90.19,11,130.06,35.39,8,4.88,15.19,11,22.83,16.37a19,19,0,0,0,5.77,2.9c15.13,4.12,27.43,11.91,34.28,26.55,5.56,11.87,4.38,23.58-2,34.79-.6,1-2.55,1.74-3.93,1.83-13.87,1-27.76,1.76-41.64,2.61-16,1-32,2-48,2.89a4.63,4.63,0,0,1-3.36-1.5,37.61,37.61,0,0,1-.41-45.54c1.65-2.15,4.37-3.47,6.23-5.8-25.85-11.08-52.21-16.53-79.31-18.15-52.55-3.14-102.42,6.78-149.34,31.67,1.92,2.3,3.67,4.25,5.25,6.33A37.72,37.72,0,0,1,142,241a5.34,5.34,0,0,1-3.54,2c-21.44,1.43-42.9,2.72-64.35,4.05-7.15.44-14.29,1-21.45,1.27a5.86,5.86,0,0,1-4-1.71c-11.49-12.39-13.33-32-3.72-45.86,4.12-5.93,9.13-11.48,15.63-15.1,5.09-2.83,10.38-5.3,15.67-7.74,1.25-.57,2.85-.37,4.29-.52Z"/><path class="cls-4" d="M233.39,245.05h4.71v8h-4.71Z"/><path class="cls-4" d="M265.21,213.18v9c-1.72-.28-4.34-.27-4.45-.8a17.88,17.88,0,0,1-.08-7.09C260.8,213.72,263.34,213.61,265.21,213.18Z"/><path class="cls-4" d="M265.14,253h-4.78c0-2.44-.42-4.84.19-6.95.28-1,2.59-1.33,4.59-2.25Z"/><path class="cls-4" d="M233.5,214h4.59v7.51C232.91,222.84,232.24,221.78,233.5,214Z"/><path class="cls-4" d="M278.77,221.49h-4.62v-8h4.62Z"/><path class="cls-4" d="M278.84,244.52v8.08h-4.71v-8.08Z"/><path class="cls-4" d="M251.8,221.54h-5.06a46.4,46.4,0,0,1,.12-6.49c.09-.61,1.56-1.42,2.4-1.42s2.34.79,2.43,1.39A46.68,46.68,0,0,1,251.8,221.54Z"/><path class="cls-4" d="M246.95,245.08c4.52-1.11,4.91-.84,4.92,3.41,0,1.24,0,2.48,0,4h-4.92Z"/><path class="cls-4" d="M251.48,261.17c1.21,6.81.71,7.54-4.73,6.56,0-1,0-2.14,0-3.25s0-2.05,0-3.31Z"/><path class="cls-4" d="M278.8,268h-4.67v-6.81h4.67Z"/><path class="cls-4" d="M238,268.27h-4.69v-6.72H238Z"/><path class="cls-4" d="M238.12,230.44v6.64h-4.71v-6.64Z"/><path class="cls-4" d="M251.61,236.74h-4.37c-1.55-6.34-.88-7.38,4.37-6.5Z"/><path class="cls-4" d="M278.73,236.74h-4.62v-6.33C279,229,279.72,229.91,278.73,236.74Z"/><path class="cls-4" d="M260.52,268.2v-6.63h4.68v6.63Z"/><path class="cls-4" d="M265.77,230.27c-1.44,2.55,1.87,5.88-2.37,6.94-3.6.9-2.92-1.92-3.11-4C259.92,229,262.83,230.51,265.77,230.27Z"/><path class="cls-4" d="M233.57,276.67H238v5.38h-4.47Z"/><path class="cls-4" d="M278.89,281.55H274.2v-5.11h4.68Z"/><path class="cls-4" d="M246.41,282c.4-2.26.4-4.07,1.15-5.47.28-.53,3.09-.58,3.38-.07.78,1.37.83,3.16,1.25,5.2Z"/><path class="cls-4" d="M260.78,276.74h4.42v4.75C260.13,282.46,259.66,281.95,260.78,276.74Z"/></g></g></g></svg>