<svg id="Capa_1" data-name="Capa 1" xmlns="http://www.w3.org/2000/svg" viewBox="0 0 149 171"><defs><style>.cls-1,.cls-2,.cls-3,.cls-4{fill:#fff;}.cls-1{fill-rule:evenodd;}.cls-3{font-size:20.12px;}.cls-3,.cls-4{font-family:TrajanPro-Bold, Trajan Pro;font-weight:700;}.cls-4{font-size:7.48px;}.cls-5{font-size:6.73px;fill:#7f863b;font-family:SegoeUISymbol, Segoe UI Symbol;}</style></defs><title>Mesa de trabajo 1</title><path class="cls-1" d="M108.14,64.53c0,1,.34,1.19,1.29,1,.59-1.9-1.29-2.24-1.29-1m26,14.53c0-.41-.35-1-.8-1s-.61.4-1,.64c-.41-1.55-2.75-.91-2.25,1.13A1.52,1.52,0,0,0,131.6,81c.4,0,.6-.4,1-.64v-.64C132.78,79.76,134.17,80.62,134.17,79.06ZM108.3,76.64s-.77-.36-.77.33a2.19,2.19,0,0,0,.16.8A2.36,2.36,0,0,0,108.3,76.64Zm3.58,3.6c2.12,0,1.47-4-.32-3.54S110.28,80.24,111.88,80.24Zm-2.23,7.82M135,87.5c0-.31-.06-.28-.2-.52l-.77.84C134.36,87.82,135,87.91,135,87.5Zm-16.4,5.15a4.23,4.23,0,0,0-.75-1.83c-.48-.72,0-.19-.76-.53-.21-.09-.9-.54-.9-.54a12.85,12.85,0,0,1-1.61.32v.33C115.81,90.49,117.79,92.42,118.64,92.65Zm1,.48a4.47,4.47,0,0,0,.27,2.39c1.44-4.25.28-1.94.22-5h-1.45C119.13,91.47,119.2,92.29,119.6,93.13Zm-1.28,8.1c-.13,0-3.06,1.55-4,2h-2.17c1.64-.85,6-4,6-6,0-2.8,1.1-2.93-2-5.35-.79-.61-3.19-2.37-4.38-1.56-.5.33-1.56,3.73-4,1.6-.84,1.25-2.78,1-4.18,1-.69,3-5.54,1.47-6.11-1-2.76-.06-2.7-3.53-.65-3.53H97.9c.19-.8.66-1.11,1.57-1.14l.22-.75a4.18,4.18,0,0,1,2.07-.37c.52,0,.12-.14.8-.32v-.32c-1.6-.42-.44.64-4.18.64-1.25,0-1.64-1.44-2.89-1.44-3.88,0-1.52.16-4.34-.48-.56-.13-3.5.31-2.25-2.09-1.43-2.14-.84-2.91,1.93-3.54.47-.11.38.1,1.28-.16.4-.12,1.67-.22,2.22-.33l.19-.64c-.46-.31-.21-.32-.8-.48-.14-.53-.65-1-.64-1.61,0-1.61-.82-2.57,1.6-2.35l1,.1c0-3.17,3.57-.43,2.91-3.06a3.28,3.28,0,0,1-.18-1.28c0-1.52,1.73-1.07,2.58-.8-.54-.8-2.12-1.83-1.77-3.22.9-1.71.82-1.25,2.41-2.09,0-2.51.51-3.86,3.37-3.86,2.32,0,3.35,2.33,4.34,2.9.48.28,1.1.53,1.65.79-.85-2.75,1.6-4,4-4.49h.48A4.23,4.23,0,0,1,118,57.6c1.23.3,1,1.64.8,2.57a4.07,4.07,0,0,1,.32,2.41c3.18,0,1.4-.44,3.7-1a5,5,0,0,1,2.25.32c2.17-1.45,2.38-.16,3.86-.16.38,0,4.34-1.85,4.34,3.54,2.55.59,2.41,3.47,2.42,5.65,1.4-.51,1.55-.14,2.4-.35.63-.15,1.78-1.12,2.41-1,1.13.28,2.38,1.65,2.09,2.89-.59,1.25-.9,2.06-2.41,2.41.66,1,1.61,1.09,1.61,2.73,2,.46,5.15,1.68,4.52,4.19l-.18.32v.64c-1.44,6.35-5.27,4.83-5.46,2.41-3.9,0-3.53-.43-6.6-.64.29,1.07,2.25.49,2.25,3.38,0,.52-.13.12-.32.8.74.19.65.77.64,1.44-1.6.82-1.28-.16-2.08-.16h-1.77c0,2.39-1.38,1.22-2.22,1l-.19-.47c-1,0-3.07-.29-3.38-1.45-.81-.07-1-.48-1.13-.48s-1.87,1.18-3.05,1.28c0,1.55,1.63,3.11,1.29,4.5-.31,1.21-1.47,2.32-1.29,3.06,1.06,2,.76,3.91,2.68,5.26a3.52,3.52,0,0,1,.55.54h-2.59v-.12c-.7,0-.49-.25-1.28-.32a2.42,2.42,0,0,1-.64-1.6,7.47,7.47,0,0,0-3.19,2h-2.12A9.24,9.24,0,0,0,118.32,101.23Z"/><path class="cls-1" d="M109,94.74v.64c-.19.36-.43,1-1,1h-.32c-1.24-.66-.61-.55-1.13-1.61v-.49a2.1,2.1,0,0,1,.32-.8h1c.92.49.65.39,1.12,1.29"/><path class="cls-1" d="M96.29,67.89v.64a.61.61,0,0,1-.64.64.9.9,0,0,1-.8-.8v-.16a.91.91,0,0,1,.8-.81h.16c.37,0,.48.12.48.49"/><path class="cls-1" d="M137.67,65.58v1.28c-.19.37-.43,1-1,1h-.33c-.55,0-.92-.74-1.12-1.13V65.42c.37-.72.09-.43.8-.81h.65c.53,0,.77.61,1,1"/><path class="cls-1" d="M146.94,78.34v.48a.62.62,0,0,1-.65.64.91.91,0,0,1-.8-.8v-.32l.15-.49c.43-.1.3-.16.64-.16a.62.62,0,0,1,.65.65"/><rect class="cls-2" y="103.08" width="148.95" height="1.16"/><rect class="cls-2" x="87.96" y="104.89" width="61.04" height="6.67"/><text class="cls-3" transform="translate(14.17 103.28)">R</text><text class="cls-3" transform="translate(29.26 103.28)">o</text><text class="cls-3" transform="translate(45.3 103.28)">b</text><text class="cls-3" transform="translate(57.37 103.28)">les</text><text class="cls-4" transform="translate(1.71 92.97)">L</text><text class="cls-4" transform="translate(6.2 92.97)">os</text><text class="cls-5" transform="translate(90.17 110.93)">solidez inmobiliaria</text></svg>